<?xml version="1.0" encoding="utf-8"?>
<svg viewBox="0 0 39 35" width="39" height="35" fill="none" xmlns="http://www.w3.org/2000/svg">
  <path d="M 29.84 16.174 C 30.031 16.508 30.132 16.886 30.132 17.27 C 30.132 17.655 30.031 18.032 29.84 18.366 L 25.531 25.799 C 25.339 26.131 25.062 26.406 24.73 26.598 C 24.398 26.789 24.021 26.89 23.637 26.891 L 15.066 26.891 C 14.685 26.888 14.311 26.786 13.982 26.594 C 13.652 26.403 13.378 26.129 13.187 25.799 L 8.878 18.366 C 8.687 18.032 8.586 17.655 8.586 17.27 C 8.586 16.886 8.687 16.508 8.878 16.174 L 11.258 12.07 L 12.555 14.128 C 12.642 14.283 12.769 14.411 12.923 14.5 C 13.077 14.589 13.252 14.635 13.43 14.633 L 17.288 14.633 C 17.466 14.635 17.641 14.589 17.795 14.5 C 17.949 14.411 18.076 14.282 18.163 14.128 L 20.092 10.76 C 20.18 10.609 20.226 10.437 20.226 10.262 C 20.226 10.088 20.18 9.916 20.092 9.765 L 15.397 1.72 C 15.096 1.199 14.662 0.765 14.14 0.464 C 13.618 0.163 13.026 0.004 12.423 0.004 L 11.644 0.004 C 10.954 0.004 10.277 0.185 9.68 0.53 C 9.082 0.874 8.586 1.37 8.242 1.967 L 0.527 15.31 C 0.182 15.907 0 16.585 0 17.274 C 0 17.963 0.182 18.641 0.527 19.237 L 8.242 32.58 C 8.587 33.177 9.083 33.672 9.68 34.016 C 10.278 34.36 10.955 34.541 11.644 34.54 L 27.074 34.54 C 27.764 34.54 28.441 34.359 29.038 34.014 C 29.636 33.67 30.132 33.174 30.476 32.577 L 38.191 19.234 C 38.536 18.637 38.718 17.959 38.718 17.27 C 38.718 16.581 38.536 15.903 38.191 15.307 L 30.476 1.963 C 30.132 1.366 29.636 0.87 29.038 0.526 C 28.441 0.181 27.764 0 27.074 0 L 20.516 0 L 29.84 16.174 Z" style="fill: rgba(60, 74, 174, 0.79);"/>
</svg>