<?xml version="1.0" encoding="utf-8"?>
<svg viewBox="0 0 141 35" width="141" height="35" fill="none" xmlns="http://www.w3.org/2000/svg">
  <path d="M29.8398 16.1745C30.0314 16.5078 30.1322 16.8855 30.1322 17.27C30.1322 17.6545 30.0314 18.0322 29.8398 18.3655L25.531 25.7989C25.3385 26.1308 25.0622 26.4063 24.7298 26.5979C24.3975 26.7894 24.0206 26.8904 23.637 26.8906L15.0656 26.8906C14.6846 26.8877 14.3109 26.7855 13.9815 26.594C13.652 26.4026 13.3782 26.1285 13.187 25.7989L8.87818 18.3655C8.68663 18.0322 8.58582 17.6545 8.58582 17.27C8.58582 16.8855 8.68663 16.5078 8.87818 16.1745L11.2583 12.0701L16.5546 21.1275C16.6418 21.2825 16.7691 21.4113 16.9232 21.5002C17.0772 21.5891 17.2524 21.6349 17.4302 21.6328L21.2877 21.6328C21.4656 21.6349 21.6408 21.5891 21.7948 21.5002C21.9489 21.4113 22.0762 21.2825 22.1634 21.1275L24.0921 17.7599C24.1795 17.6086 24.2255 17.437 24.2255 17.2623C24.2255 17.0876 24.1795 16.916 24.0921 16.7647L15.3973 1.72045C15.0956 1.19867 14.662 0.765398 14.14 0.464105C13.618 0.162813 13.0259 0.00408893 12.4232 0.00385911L11.644 0.00385914C10.9544 0.00359764 10.2769 0.184924 9.6797 0.529597C9.08244 0.87427 8.58648 1.37014 8.24169 1.96733L0.526706 15.3104C0.181668 15.9072 -7.84862e-07 16.5845 -7.54727e-07 17.2739C-7.24593e-07 17.9633 0.181668 18.6405 0.526706 19.2373L8.2417 32.5804C8.58697 33.1769 9.08314 33.672 9.68036 34.0159C10.2776 34.3599 10.9548 34.5407 11.644 34.54L27.074 34.54C27.7636 34.5403 28.441 34.3589 29.0383 34.0143C29.6355 33.6696 30.1315 33.1737 30.4763 32.5765L38.1913 19.2335C38.5363 18.6366 38.718 17.9594 38.718 17.27C38.718 16.5806 38.5363 15.9034 38.1913 15.3065L30.4763 1.96347C30.1315 1.36628 29.6355 0.870411 29.0383 0.525738C28.441 0.181065 27.7636 -0.00025847 27.074 3.09408e-06L20.5162 3.38073e-06L29.8398 16.1745Z" style="fill: rgb(174, 174, 177);"/>
  <path d="M 65.222 16.671 Q 65.222 19.214 64.579 21.156 Q 63.936 23.097 62.802 24.382 Q 61.667 25.667 60.149 26.323 Q 58.632 26.98 56.827 26.98 Q 55.022 26.98 53.505 26.323 Q 51.987 25.667 50.852 24.382 Q 49.718 23.097 49.075 21.156 Q 48.432 19.214 48.432 16.671 Q 48.432 14.128 49.075 12.2 Q 49.718 10.273 50.852 8.988 Q 51.987 7.702 53.505 7.032 Q 55.022 6.363 56.827 6.363 Q 58.632 6.363 60.149 7.032 Q 61.667 7.702 62.802 8.988 Q 63.936 10.273 64.579 12.2 Q 65.222 14.128 65.222 16.671 Z M 56.745 24.3 Q 57.757 24.3 58.673 23.904 Q 59.589 23.507 60.313 22.605 Q 61.038 21.702 61.448 20.239 Q 61.858 18.777 61.886 16.671 Q 61.858 14.62 61.462 13.185 Q 61.065 11.749 60.368 10.82 Q 59.671 9.89 58.782 9.48 Q 57.893 9.07 56.909 9.07 Q 55.897 9.07 54.981 9.452 Q 54.065 9.835 53.341 10.751 Q 52.616 11.667 52.206 13.116 Q 51.796 14.566 51.768 16.671 Q 51.796 18.722 52.192 20.171 Q 52.589 21.62 53.286 22.536 Q 53.983 23.452 54.872 23.876 Q 55.761 24.3 56.745 24.3 Z" style="fill: rgb(51, 51, 51); white-space: pre;"/>
  <path d="M 90.05 26.323 L 90.05 26.843 L 86.768 26.843 L 86.768 18.448 Q 86.768 17.519 86.755 16.685 Q 86.741 15.851 86.577 15.195 Q 86.413 14.538 86.044 14.169 Q 85.675 13.8 84.909 13.8 Q 84.772 13.8 84.431 13.841 Q 84.089 13.882 83.624 14.005 Q 83.159 14.128 82.598 14.402 Q 82.038 14.675 81.491 15.113 Q 81.491 16.179 81.505 16.808 Q 81.518 17.437 81.518 18.175 L 81.518 26.843 L 78.21 26.843 L 78.21 18.448 Q 78.21 17.519 78.21 16.685 Q 78.21 15.851 78.046 15.195 Q 77.882 14.538 77.499 14.169 Q 77.116 13.8 76.378 13.8 Q 76.132 13.8 75.694 13.868 Q 75.257 13.937 74.778 14.101 Q 74.3 14.265 73.821 14.511 Q 73.343 14.757 73.014 15.085 L 73.014 26.843 L 69.679 26.843 L 69.679 11.421 L 72.659 11.421 L 73.014 13.007 Q 73.698 12.378 74.778 11.845 Q 75.858 11.312 77.034 11.312 Q 78.347 11.312 79.222 11.886 Q 80.097 12.46 80.972 13.581 Q 81.436 13.062 82.011 12.624 Q 82.585 12.187 83.2 11.886 Q 83.815 11.585 84.417 11.421 Q 85.018 11.257 85.565 11.257 Q 86.495 11.257 87.315 11.626 Q 88.136 11.995 88.751 12.679 Q 89.366 13.363 89.708 14.306 Q 90.05 15.249 90.05 16.343 L 90.05 18.175 Z" style="fill: rgb(51, 51, 51); white-space: pre;"/>
  <path d="M 98.057 26.843 L 94.722 26.843 L 94.722 11.421 L 98.057 11.421 Z M 98.358 6.499 Q 98.358 7.32 97.784 7.88 Q 97.21 8.441 96.389 8.441 Q 95.569 8.441 95.009 7.866 Q 94.448 7.292 94.448 6.499 Q 94.448 5.679 95.022 5.105 Q 95.597 4.531 96.389 4.531 Q 97.21 4.531 97.784 5.105 Q 98.358 5.679 98.358 6.499 Z" style="fill: rgb(51, 51, 51); white-space: pre;"/>
  <path d="M 105.854 28.839 Q 106.128 29.304 106.552 29.605 Q 106.975 29.906 107.427 30.07 Q 107.878 30.234 108.329 30.302 Q 108.78 30.37 109.136 30.37 Q 110.831 30.37 111.788 29.386 Q 112.745 28.402 112.745 26.023 L 112.745 25.312 L 112.745 25.257 L 112.772 25.12 Q 112.772 25.093 112.759 25.066 Q 112.745 25.038 112.745 25.011 Q 112.663 25.366 112.266 25.722 Q 111.87 26.077 111.268 26.364 Q 110.667 26.652 109.901 26.816 Q 109.136 26.98 108.315 26.98 Q 106.784 26.98 105.636 26.31 Q 104.487 25.64 103.722 24.519 Q 102.956 23.398 102.6 21.948 Q 102.245 20.499 102.245 18.913 Q 102.245 16.781 102.833 15.331 Q 103.421 13.882 104.337 12.966 Q 105.253 12.05 106.388 11.667 Q 107.522 11.284 108.616 11.284 Q 109.956 11.284 111.063 11.749 Q 112.171 12.214 112.745 12.98 L 113.1 11.421 L 116.054 11.421 L 116.026 26.843 Q 115.917 28.511 115.356 29.687 Q 114.796 30.863 113.921 31.628 Q 113.046 32.394 111.897 32.722 Q 110.749 33.05 109.436 33.05 Q 107.905 33.05 106.415 32.517 Q 104.925 31.984 103.94 30.726 Z M 112.964 19.023 Q 112.964 17.929 112.69 16.999 Q 112.417 16.07 111.952 15.359 Q 111.487 14.648 110.804 14.238 Q 110.12 13.827 109.327 13.827 Q 108.507 13.827 107.837 14.251 Q 107.167 14.675 106.702 15.386 Q 106.237 16.097 105.991 17.054 Q 105.745 18.011 105.745 19.077 Q 105.745 20.171 106.005 21.142 Q 106.264 22.113 106.743 22.823 Q 107.222 23.534 107.891 23.958 Q 108.561 24.382 109.382 24.382 Q 110.229 24.382 110.886 23.958 Q 111.542 23.534 111.993 22.81 Q 112.444 22.085 112.704 21.101 Q 112.964 20.116 112.964 19.023 Z" style="fill: rgb(51, 51, 51); white-space: pre;"/>
  <path d="M 132.432 22.058 L 132.432 22.277 Q 132.432 22.495 132.46 22.919 Q 132.487 23.343 132.569 23.781 Q 132.651 24.218 132.829 24.573 Q 133.007 24.929 133.307 25.038 L 132.432 26.87 Q 132.077 26.87 131.681 26.706 Q 131.284 26.542 130.915 26.241 Q 130.546 25.941 130.286 25.572 Q 130.026 25.202 129.889 24.765 Q 129.698 25.23 129.22 25.626 Q 128.741 26.023 128.139 26.337 Q 127.538 26.652 126.841 26.816 Q 126.143 26.98 125.542 26.98 Q 124.612 26.98 123.751 26.734 Q 122.889 26.488 122.233 25.941 Q 121.577 25.394 121.208 24.491 Q 120.839 23.589 120.839 22.277 Q 120.839 21.019 121.372 20.103 Q 121.905 19.187 122.739 18.599 Q 123.573 18.011 124.639 17.724 Q 125.706 17.437 126.8 17.437 L 129.124 17.437 Q 129.124 16.097 128.987 15.304 Q 128.85 14.511 128.522 14.142 Q 128.194 13.773 127.716 13.677 Q 127.237 13.581 126.581 13.581 Q 125.979 13.581 125.446 13.732 Q 124.913 13.882 124.462 14.087 Q 124.011 14.292 123.669 14.538 Q 123.327 14.784 123.163 14.921 L 121.932 13.034 Q 122.206 12.734 122.753 12.419 Q 123.3 12.105 124.011 11.859 Q 124.722 11.613 125.556 11.462 Q 126.389 11.312 127.292 11.312 Q 128.112 11.312 128.891 11.476 Q 129.671 11.64 130.313 12.023 Q 130.956 12.406 131.434 13.048 Q 131.913 13.691 132.104 14.648 Q 132.296 15.605 132.364 16.575 Q 132.432 17.546 132.432 18.503 Z M 129.151 19.378 L 127.401 19.378 Q 126.854 19.378 126.253 19.488 Q 125.651 19.597 125.132 19.898 Q 124.612 20.198 124.27 20.759 Q 123.929 21.32 123.929 22.195 Q 123.929 23.562 124.544 24.163 Q 125.159 24.765 126.335 24.765 Q 127.155 24.765 127.907 24.327 Q 128.659 23.89 129.151 23.152 Z" style="fill: rgb(51, 51, 51); white-space: pre;"/>
</svg>